# xmcd
#
# Track frame offsets:
#	150
#	17720
#	40590
#	64045
#	73570
#	91617
#	109905
#	126005
#	146192
#	174252
#
# Disc length: 2601 seconds
#
# Revision: 0
# Processed by: cddbd v1.4PL0 Copyright (c) Steve Scherf et al.
# Submitted via: EasyCDDAExtractor 5.0.5.1
#
DISCID=7e0a270a
DTITLE=Graeme Connors - The Here And Now
DYEAR=1995
DGENRE=Country
TTITLE0=Welcome To The Here And Now
TTITLE1=The Great Australian Dream
TTITLE2=These Blue Skies
TTITLE3=Let's Have Some Fun
TTITLE4=The Pacific Hotel
TTITLE5=Sun Arise
TTITLE6=Births Deaths And Marriages
TTITLE7=Fireflies
TTITLE8=The Ringer And The Princess
TTITLE9=We've Done Us Proud
EXTD=
EXTT0=
EXTT1=
EXTT2=
EXTT3=
EXTT4=
EXTT5=
EXTT6=
EXTT7=
EXTT8=
EXTT9=
PLAYORDER=
